<?xml version="1.0" encoding="utf-8"?>
<!-- Generator: Adobe Illustrator 27.1.1, SVG Export Plug-In . SVG Version: 6.00 Build 0)  -->
<svg version="1.1" id="Layer_1" xmlns="http://www.w3.org/2000/svg" xmlns:xlink="http://www.w3.org/1999/xlink" x="0px" y="0px"
	 viewBox="0 0 195 119.2" style="enable-background:new 0 0 195 119.2;" xml:space="preserve">
<style type="text/css">
	.st0{fill:#74E4DB;}
</style>
<path class="st0" d="M92,1.6c-1.6,1.3-2.5,4-3.5,9.8c-1.9,10.7-5.4,50.6-5.9,67.3c-0.7,20.9-2.7,20.6-14-2.5
	C58.7,55.8,57.6,54.9,46,55c-4.2,0-15.4,0.4-24.9,0.8C2.2,56.6,0,57.3,1.3,62.3c0.9,3.8,5.6,4.6,27.1,4.6c10.5,0,20,0.3,21.2,0.6
	c1.6,0.4,3.6,3.5,7.3,11.2c10.5,21.8,22.4,39,28,40.5c3.1,0.8,6.4-1.5,7.2-5.3c0.8-3.7,3.7-52.5,3.9-65.6c0.1-8,1.2-11.9,3.5-12.8
	c1.8-0.7,2.6,0.5,8.9,14.4c6.6,14.5,6.5,14.3,11,16.4c3.1,1.5,6.2,1.5,37.2,0.1c30.7-1.4,33.9-1.7,35.6-3.4c1.4-1.4,1.8-2.7,1.3-4.5
	c-1.2-4.8-3.1-5-35-3.8c-20.7,0.9-30.2,0.9-32.3,0.1c-3.5-1.2-6.1-6.3-17.7-34.4C100.4,0.9,97.3-2.7,92,1.6z"/>
</svg>
